<?xml version="1.0" encoding="UTF-8" standalone="no"?>
<!DOCTYPE svg PUBLIC "-//W3C//DTD SVG 1.1//EN"
 "http://www.w3.org/Graphics/SVG/1.1/DTD/svg11.dtd">
<!-- Generated by graphviz version 13.1.2 (20250808.2320)
 -->
<!-- Title: dag_good Pages: 1 -->
<svg width="528pt" height="242pt"
 viewBox="0.00 0.00 528.00 242.00" xmlns="http://www.w3.org/2000/svg" xmlns:xlink="http://www.w3.org/1999/xlink">
<g id="graph0" class="graph" transform="scale(1 1) rotate(0) translate(4 237.65)">
<title>dag_good</title>
<polygon fill="white" stroke="none" points="-4,4 -4,-237.65 524.1,-237.65 524.1,4 -4,4"/>
<!-- A -->
<g id="node1" class="node">
<title>A</title>
<ellipse fill="none" stroke="black" cx="277.83" cy="-142.99" rx="71.77" ry="28.99"/>
<text xml:space="preserve" text-anchor="middle" x="277.83" y="-146.19" font-family="Times New Roman,serif" font-size="14.00">A_t</text>
<text xml:space="preserve" text-anchor="middle" x="277.83" y="-129.69" font-family="Times New Roman,serif" font-size="14.00">(coup attempts)</text>
</g>
<!-- Y -->
<g id="node5" class="node">
<title>Y</title>
<polygon fill="none" stroke="black" points="520.1,-134.49 385.6,-134.49 385.6,-93.49 520.1,-93.49 520.1,-134.49"/>
<text xml:space="preserve" text-anchor="middle" x="452.85" y="-117.19" font-family="Times New Roman,serif" font-size="14.00">Y*_{t+1}</text>
<text xml:space="preserve" text-anchor="middle" x="452.85" y="-100.69" font-family="Times New Roman,serif" font-size="14.00">(coup end next year?)</text>
</g>
<!-- A&#45;&gt;Y -->
<g id="edge1" class="edge">
<title>A&#45;&gt;Y</title>
<path fill="none" stroke="black" d="M344.74,-131.94C354.28,-130.35 364.17,-128.69 373.92,-127.05"/>
<polygon fill="black" stroke="black" points="374.49,-130.51 383.78,-125.4 373.34,-123.6 374.49,-130.51"/>
</g>
<!-- C -->
<g id="node2" class="node">
<title>C</title>
<ellipse fill="none" stroke="black" cx="85.03" cy="-192.99" rx="85.03" ry="40.66"/>
<text xml:space="preserve" text-anchor="middle" x="85.03" y="-204.44" font-family="Times New Roman,serif" font-size="14.00">C_t</text>
<text xml:space="preserve" text-anchor="middle" x="85.03" y="-187.94" font-family="Times New Roman,serif" font-size="14.00">(conflicts, protest,</text>
<text xml:space="preserve" text-anchor="middle" x="85.03" y="-171.44" font-family="Times New Roman,serif" font-size="14.00">repression, shocks)</text>
</g>
<!-- C&#45;&gt;A -->
<g id="edge5" class="edge">
<title>C&#45;&gt;A</title>
<path fill="none" stroke="black" d="M160.34,-173.52C175.42,-169.57 191.23,-165.42 206.17,-161.51"/>
<polygon fill="black" stroke="black" points="206.62,-165.01 215.41,-159.09 204.85,-158.24 206.62,-165.01"/>
</g>
<!-- C&#45;&gt;Y -->
<g id="edge2" class="edge">
<title>C&#45;&gt;Y</title>
<path fill="none" stroke="black" d="M169.06,-200.29C221.98,-202.27 291.31,-199.84 349.6,-180.99 375.11,-172.74 400.34,-156.32 419.36,-141.8"/>
<polygon fill="black" stroke="black" points="421.29,-144.74 426.98,-135.8 416.96,-139.23 421.29,-144.74"/>
</g>
<!-- U -->
<g id="node3" class="node">
<title>U</title>
<ellipse fill="none" stroke="black" cx="85.03" cy="-98.99" rx="64.88" ry="28.99"/>
<text xml:space="preserve" text-anchor="middle" x="85.03" y="-102.19" font-family="Times New Roman,serif" font-size="14.00">U_i</text>
<text xml:space="preserve" text-anchor="middle" x="85.03" y="-85.69" font-family="Times New Roman,serif" font-size="14.00">(country trait)</text>
</g>
<!-- U&#45;&gt;A -->
<g id="edge6" class="edge">
<title>U&#45;&gt;A</title>
<path fill="none" stroke="black" d="M143.28,-112.19C162.36,-116.59 183.87,-121.55 203.97,-126.19"/>
<polygon fill="black" stroke="black" points="202.96,-129.55 213.49,-128.39 204.54,-122.73 202.96,-129.55"/>
</g>
<!-- U&#45;&gt;Y -->
<g id="edge3" class="edge">
<title>U&#45;&gt;Y</title>
<path fill="none" stroke="black" d="M150.26,-99.29C203.65,-99.81 281.62,-101.23 349.6,-104.99 357.55,-105.43 365.84,-105.99 374.11,-106.62"/>
<polygon fill="black" stroke="black" points="373.59,-110.09 383.84,-107.39 374.14,-103.11 373.59,-110.09"/>
</g>
<!-- T -->
<g id="node4" class="node">
<title>T</title>
<ellipse fill="none" stroke="black" cx="277.83" cy="-28.99" rx="47.91" ry="28.99"/>
<text xml:space="preserve" text-anchor="middle" x="277.83" y="-32.19" font-family="Times New Roman,serif" font-size="14.00">W_t</text>
<text xml:space="preserve" text-anchor="middle" x="277.83" y="-15.69" font-family="Times New Roman,serif" font-size="14.00">(year FE)</text>
</g>
<!-- T&#45;&gt;Y -->
<g id="edge4" class="edge">
<title>T&#45;&gt;Y</title>
<path fill="none" stroke="black" d="M315.52,-47.02C339.8,-58.94 372.02,-74.77 399.04,-88.04"/>
<polygon fill="black" stroke="black" points="397.23,-91.06 407.75,-92.33 400.32,-84.78 397.23,-91.06"/>
</g>
</g>
</svg>
