<?xml version="1.0" encoding="UTF-8" standalone="no"?>
<!DOCTYPE svg PUBLIC "-//W3C//DTD SVG 1.1//EN"
 "http://www.w3.org/Graphics/SVG/1.1/DTD/svg11.dtd">
<!-- Generated by graphviz version 13.1.2 (20250808.2320)
 -->
<!-- Title: dag_bad Pages: 1 -->
<svg width="442pt" height="242pt"
 viewBox="0.00 0.00 442.00 242.00" xmlns="http://www.w3.org/2000/svg" xmlns:xlink="http://www.w3.org/1999/xlink">
<g id="graph0" class="graph" transform="scale(1 1) rotate(0) translate(4 237.65)">
<title>dag_bad</title>
<polygon fill="white" stroke="none" points="-4,4 -4,-237.65 437.56,-237.65 437.56,4 -4,4"/>
<!-- A -->
<g id="node1" class="node">
<title>A</title>
<ellipse fill="none" stroke="black" cx="85.03" cy="-104.99" rx="71.77" ry="28.99"/>
<text xml:space="preserve" text-anchor="middle" x="85.03" y="-108.19" font-family="Times New Roman,serif" font-size="14.00">A_t</text>
<text xml:space="preserve" text-anchor="middle" x="85.03" y="-91.69" font-family="Times New Roman,serif" font-size="14.00">(coup attempts)</text>
</g>
<!-- E -->
<g id="node4" class="node">
<title>E</title>
<polygon fill="none" stroke="black" points="427.56,-91.49 317.81,-91.49 317.81,-50.49 427.56,-50.49 427.56,-91.49"/>
<text xml:space="preserve" text-anchor="middle" x="372.68" y="-74.19" font-family="Times New Roman,serif" font-size="14.00">E_{t+1}</text>
<text xml:space="preserve" text-anchor="middle" x="372.68" y="-57.69" font-family="Times New Roman,serif" font-size="14.00">(any regime end)</text>
</g>
<!-- A&#45;&gt;E -->
<g id="edge1" class="edge">
<title>A&#45;&gt;E</title>
<path fill="none" stroke="black" d="M154.45,-96.85C200.56,-91.36 261.01,-84.16 306.44,-78.76"/>
<polygon fill="black" stroke="black" points="306.62,-82.26 316.14,-77.6 305.8,-75.31 306.62,-82.26"/>
</g>
<!-- Y -->
<g id="node5" class="node">
<title>Y</title>
<polygon fill="none" stroke="black" points="433.56,-150.49 311.81,-150.49 311.81,-109.49 433.56,-109.49 433.56,-150.49"/>
<text xml:space="preserve" text-anchor="middle" x="372.68" y="-133.19" font-family="Times New Roman,serif" font-size="14.00">Y_{t+1}</text>
<text xml:space="preserve" text-anchor="middle" x="372.68" y="-116.69" font-family="Times New Roman,serif" font-size="14.00">(coup vs not | E=1)</text>
</g>
<!-- A&#45;&gt;Y -->
<g id="edge6" class="edge">
<title>A&#45;&gt;Y</title>
<path fill="none" stroke="black" stroke-dasharray="5,2" d="M155.54,-111.08C199.45,-114.92 256.03,-119.87 300.29,-123.74"/>
<polygon fill="black" stroke="black" points="299.78,-127.21 310.05,-124.6 300.39,-120.24 299.78,-127.21"/>
<text xml:space="preserve" text-anchor="middle" x="240.93" y="-125.8" font-family="Times New Roman,serif" font-size="14.00">selection bias via E</text>
</g>
<!-- C -->
<g id="node2" class="node">
<title>C</title>
<ellipse fill="none" stroke="black" cx="85.03" cy="-192.99" rx="85.03" ry="40.66"/>
<text xml:space="preserve" text-anchor="middle" x="85.03" y="-204.44" font-family="Times New Roman,serif" font-size="14.00">C_t</text>
<text xml:space="preserve" text-anchor="middle" x="85.03" y="-187.94" font-family="Times New Roman,serif" font-size="14.00">(conflicts, protest,</text>
<text xml:space="preserve" text-anchor="middle" x="85.03" y="-171.44" font-family="Times New Roman,serif" font-size="14.00">repression, shocks)</text>
</g>
<!-- C&#45;&gt;E -->
<g id="edge2" class="edge">
<title>C&#45;&gt;E</title>
<path fill="none" stroke="black" d="M166.94,-181.15C216.67,-172.46 274.46,-159.32 293.81,-142.99 309.33,-129.89 297.88,-115.77 311.81,-100.99 312.51,-100.25 313.23,-99.53 313.97,-98.82"/>
<polygon fill="black" stroke="black" points="315.85,-101.79 321.38,-92.75 311.42,-96.38 315.85,-101.79"/>
</g>
<!-- C&#45;&gt;Y -->
<g id="edge4" class="edge">
<title>C&#45;&gt;Y</title>
<path fill="none" stroke="black" d="M170.39,-195.3C208.83,-194.14 254.44,-189.6 293.81,-176.99 308.05,-172.43 322.41,-164.81 334.85,-157.03"/>
<polygon fill="black" stroke="black" points="336.66,-160.03 343.11,-151.63 332.83,-154.17 336.66,-160.03"/>
</g>
<!-- U -->
<g id="node3" class="node">
<title>U</title>
<ellipse fill="none" stroke="black" cx="85.03" cy="-28.99" rx="64.88" ry="28.99"/>
<text xml:space="preserve" text-anchor="middle" x="85.03" y="-32.19" font-family="Times New Roman,serif" font-size="14.00">U_i</text>
<text xml:space="preserve" text-anchor="middle" x="85.03" y="-15.69" font-family="Times New Roman,serif" font-size="14.00">(country trait)</text>
</g>
<!-- U&#45;&gt;E -->
<g id="edge3" class="edge">
<title>U&#45;&gt;E</title>
<path fill="none" stroke="black" d="M146.96,-37.95C193.83,-44.84 258.48,-54.35 306.41,-61.39"/>
<polygon fill="black" stroke="black" points="305.69,-64.83 316.1,-62.82 306.71,-57.9 305.69,-64.83"/>
</g>
<!-- U&#45;&gt;Y -->
<g id="edge5" class="edge">
<title>U&#45;&gt;Y</title>
<path fill="none" stroke="black" d="M136.06,-47.28C152.6,-53.28 171.1,-59.96 188.06,-65.99 225.23,-79.21 266.73,-93.69 300.85,-105.54"/>
<polygon fill="black" stroke="black" points="299.64,-108.82 310.23,-108.79 301.93,-102.2 299.64,-108.82"/>
</g>
</g>
</svg>
