<?xml version="1.0" encoding="UTF-8" standalone="no"?>
<!DOCTYPE svg PUBLIC "-//W3C//DTD SVG 1.1//EN"
 "http://www.w3.org/Graphics/SVG/1.1/DTD/svg11.dtd">
<!-- Generated by graphviz version 13.1.2 (20250808.2320)
 -->
<!-- Pages: 1 -->
<svg width="162pt" height="247pt"
 viewBox="0.00 0.00 162.00 247.00" xmlns="http://www.w3.org/2000/svg" xmlns:xlink="http://www.w3.org/1999/xlink">
<g id="graph0" class="graph" transform="scale(1 1) rotate(0) translate(4 243.13)">
<polygon fill="white" stroke="none" points="-4,4 -4,-243.13 158,-243.13 158,4 -4,4"/>
<g id="clust1" class="cluster">
<title>clusterobs_id (21255)</title>
<path fill="none" stroke="black" d="M20,-8C20,-8 134,-8 134,-8 140,-8 146,-14 146,-20 146,-20 146,-117.82 146,-117.82 146,-123.82 140,-129.82 134,-129.82 134,-129.82 20,-129.82 20,-129.82 14,-129.82 8,-123.82 8,-117.82 8,-117.82 8,-20 8,-20 8,-14 14,-8 20,-8"/>
<text xml:space="preserve" text-anchor="middle" x="96.75" y="-15.2" font-family="Times New Roman,serif" font-size="14.00">obs_id (21255)</text>
</g>
<!-- p_coup -->
<g id="node1" class="node">
<title>p_coup</title>
<ellipse fill="none" stroke="black" cx="77" cy="-198.48" rx="39.42" ry="40.66"/>
<text xml:space="preserve" text-anchor="middle" x="77" y="-209.93" font-family="Times New Roman,serif" font-size="14.00">p_coup</text>
<text xml:space="preserve" text-anchor="middle" x="77" y="-193.43" font-family="Times New Roman,serif" font-size="14.00">~</text>
<text xml:space="preserve" text-anchor="middle" x="77" y="-176.93" font-family="Times New Roman,serif" font-size="14.00">Beta</text>
</g>
<!-- saycoup_obs -->
<g id="node2" class="node">
<title>saycoup_obs</title>
<ellipse fill="lightgrey" stroke="black" cx="77" cy="-81.16" rx="60.63" ry="40.66"/>
<text xml:space="preserve" text-anchor="middle" x="77" y="-92.61" font-family="Times New Roman,serif" font-size="14.00">saycoup_obs</text>
<text xml:space="preserve" text-anchor="middle" x="77" y="-76.11" font-family="Times New Roman,serif" font-size="14.00">~</text>
<text xml:space="preserve" text-anchor="middle" x="77" y="-59.61" font-family="Times New Roman,serif" font-size="14.00">Bernoulli</text>
</g>
<!-- p_coup&#45;&gt;saycoup_obs -->
<g id="edge1" class="edge">
<title>p_coup&#45;&gt;saycoup_obs</title>
<path fill="none" stroke="black" d="M77,-157.47C77,-149.69 77,-141.43 77,-133.34"/>
<polygon fill="black" stroke="black" points="80.5,-133.61 77,-123.61 73.5,-133.61 80.5,-133.61"/>
</g>
</g>
</svg>
